<?xml version="1.0" encoding="utf-8"?>
<!-- Generator: Adobe Illustrator 19.1.0, SVG Export Plug-In . SVG Version: 6.00 Build 0)  -->
<svg version="1.1" id="Layer_1" xmlns="http://www.w3.org/2000/svg" xmlns:xlink="http://www.w3.org/1999/xlink" x="0px" y="0px"
	 viewBox="0 0 360 117" style="enable-background:new 0 0 360 117;" xml:space="preserve">
<style type="text/css">
	.st0{fill:#ED1B2F;}
	.st1{fill:#414042;}
	.st2{fill:#58595B;}
</style>
<g>
	<path class="st0" d="M141.2,40.5c-2.3,0.2-12.9,1.9-15.2,2.3c-10,1.5-20.4,3.7-30,7.1v20.5c5.1,1,10.2,2,15.3,2.7
		c10.7,1.4,21.5,2,32.2,2c1.6-4.8,2.5-10,2.5-15.3c0-6.9-1.4-13.4-4-19.3C141.7,40.4,141.5,40.5,141.2,40.5"/>
	<path class="st0" d="M95.9,42.1c11.1-3.4,29.6-7.5,42.3-8.8c-8.7-13.6-23.9-22.6-41.2-22.6c-0.3,0-0.7,0-1,0V42.1z"/>
	<path class="st0" d="M80.2,58.7c-0.5,0.6-0.9,1.2-1.2,1.9c-0.4,0.8-0.6,1.6-0.5,2.4c0.1,0.6,0.9,1.6,2,2.3c2.4,1.6,5.2,2.5,8,3.3
		V52.9C85.3,54.4,82.3,56.2,80.2,58.7"/>
	<path class="st0" d="M128.1,82.1c-10.8-0.6-21.6-1.9-32.2-4v30.5c0.3,0,0.7,0,1,0c18.8,0,35.1-10.6,43.3-26.1
		C136.2,82.5,132.2,82.4,128.1,82.1"/>
	<path class="st1" d="M88.4,76.4c-0.1,0-0.2,0-0.3-0.1c-3.6-0.9-8.1-2.4-11.7-4.7c0,0,0,0,0,0c-0.2-0.2-0.5-0.3-0.7-0.5
		c0,0,0,0-0.1,0c-0.2-0.2-0.5-0.3-0.7-0.5c0,0,0,0-0.1,0c-0.2-0.2-0.5-0.4-0.7-0.6c0,0,0,0,0,0c-0.9-0.8-1.7-1.7-2.2-2.7
		c0,0,0-0.1-0.1-0.1c-0.1-0.2-0.2-0.4-0.3-0.6c0-0.1-0.1-0.2-0.1-0.2c-0.1-0.2-0.1-0.4-0.2-0.5c0-0.1-0.1-0.2-0.1-0.3
		c-0.1-0.2-0.1-0.3-0.1-0.5c0-0.1,0-0.2-0.1-0.3c0-0.2-0.1-0.3-0.1-0.5c0-0.1,0-0.2,0-0.4c0-0.2,0-0.3,0-0.5c0-0.1,0-0.2,0-0.4
		c0-0.2,0-0.4,0-0.5c0-0.1,0-0.3,0-0.4c0-0.2,0.1-0.4,0.1-0.6c0-0.1,0-0.3,0.1-0.4c0-0.2,0.1-0.4,0.2-0.7c0-0.1,0.1-0.2,0.1-0.3
		c0.1-0.3,0.2-0.7,0.4-1c2.8-7.2,9.7-11.4,16.8-14.2V11.5c-23,4-40.4,24.1-40.4,48.2c0,24.1,17.5,44.2,40.4,48.2V76.4z"/>
	<path class="st2" d="M167.4,41l6.8-8.9h3.7l-7.4,9.8l8.2,11.1h-3.9l-6.5-8.7l-2.2,2.7v6h-3.3V32.1h3.3v8.6c0,1,0,1.8,0,1.8
		L167.4,41"/>
</g>
<rect x="183.6" y="32.1" class="st2" width="3.2" height="20.9"/>
<g>
	<path class="st2" d="M198.1,40.8c-0.8-0.9-1.8-2.1-1.8-2.1s0,1.5,0,2.8V53h-3V31.9h0.4l11.5,12.4c0.8,0.9,1.8,2.1,1.8,2.1
		s0-1.6,0-2.8V32.1h3v21.1h-0.4L198.1,40.8z"/>
	<path class="st2" d="M215.4,42.6c0-6.2,4.5-10.7,10.7-10.7c3.2,0,5.7,0.9,7.4,2.8l-2.2,2.2c-1.2-1.3-2.7-2.1-5.2-2.1
		c-4.4,0-7.4,3.3-7.4,7.8c0,4.5,3.1,7.8,7.8,7.8c2.2,0,4-0.6,5.2-1.4v-3.7h-5.6v-2.9h8.6v8.2c-1.4,1.2-4.2,2.7-8.2,2.7
		C220,53.3,215.4,48.8,215.4,42.6"/>
	<path class="st2" d="M246,50.2c5.4,0,8-3.1,8-7.6c0-4.5-2.6-7.6-8-7.6h-2.3v15.2H246z M240.5,32.1h5.7c6.7,0,11.2,4.2,11.2,10.5
		c0,6.3-4.4,10.5-11.2,10.5h-5.7V32.1z"/>
	<path class="st2" d="M280.1,42.6c0-4.5-3.1-7.8-7.4-7.8c-4.4,0-7.5,3.4-7.5,7.8c0,4.5,3.1,7.8,7.5,7.8
		C277,50.4,280.1,47,280.1,42.6 M261.9,42.6c0-6.2,4.8-10.7,10.8-10.7c6,0,10.8,4.5,10.8,10.7c0,6.2-4.8,10.7-10.8,10.7
		C266.7,53.3,261.9,48.8,261.9,42.6"/>
	<path class="st2" d="M288.9,31.9h0.3l10,11.7l9.9-11.7h0.3V53h-3.1V42.2c0-1.2,0.1-3,0.1-3s-1,1.6-1.9,2.5l-5.3,6.3h-0.4l-5.3-6.3
		c-0.8-1-1.8-2.5-1.8-2.5s0.1,1.8,0.1,3V53h-3.1V31.9z"/>
	<path class="st0" d="M162.1,76.4c0-7.7,5.9-13.3,13.4-13.3c4.7,0,8.1,1.7,10.4,5.3l-4.1,2.9c-1.2-2-3.3-3.4-6.3-3.4
		c-4.7,0-7.9,3.6-7.9,8.5c0,4.9,3.2,8.6,7.9,8.6c3.4,0,5.2-1.6,6.7-3.8l4.2,2.9c-2.3,3.5-5.8,5.7-10.8,5.7
		C168.1,89.8,162.1,84.1,162.1,76.4"/>
	<path class="st0" d="M209.9,82l-1.9-4.5c-0.8-1.8-1.6-4.7-1.6-4.7s-0.8,2.8-1.5,4.7l-1.9,4.5H209.9z M206.3,63.2h0.5l11.9,26.2
		h-5.6l-1.2-2.9h-10.5l-1.2,2.9h-5.2L206.3,63.2z"/>
	<path class="st0" d="M236.8,78.3c4.4,0,6.3-1.4,6.3-5c0-3.7-2-5.1-6.3-5.1h-1.7v10.2H236.8z M249,89.4h-6.2l-4.3-6.6
		c-0.5,0.1-1,0.1-1.5,0.1h-1.8v6.5h-5.3v-26h7.2c7.3,0,11.6,3.5,11.6,9.8c0,4-1.8,6.6-5,8.1L249,89.4z"/>
</g>
<polygon class="st0" points="260.9,63.5 278.1,63.5 278.1,68.1 266.3,68.1 266.3,76.4 276.7,76.4 276.7,81 266.3,81 266.3,84.7 
	278.6,84.7 278.6,89.4 260.9,89.4 "/>
<g>
	<path class="st0" d="M289.2,84.3l4.4-2.5c1.1,1.9,2.6,3.2,5.3,3.2c2.2,0,3.6-1.1,3.6-2.6c0-1.8-1.5-2.5-3.9-3.6l-1.3-0.6
		c-3.9-1.6-6.4-3.7-6.4-8.1c0-4,3.1-7.1,7.8-7.1c3.4,0,5.8,1.2,7.6,4.3l-4.2,2.7c-0.9-1.6-1.9-2.3-3.4-2.3c-1.6,0-2.6,1-2.6,2.3
		c0,1.6,1,2.3,3.3,3.2l1.3,0.6c4.5,1.9,7.1,3.9,7.1,8.4c0,4.8-3.8,7.4-8.9,7.4C294,89.8,290.7,87.4,289.2,84.3"/>
</g>
</svg>
