<svg id="Layer_1" data-name="Layer 1" xmlns="http://www.w3.org/2000/svg" viewBox="0 0 338.1 59.04"><defs><style>.cls-1{fill:#ed1b2f;}.cls-2{fill:#fff;}</style></defs><title>kc-logo-horiz-rev</title><path class="cls-1" d="M67.23,168.54c-1.38.1-7.79,1.16-9.16,1.36A98.07,98.07,0,0,0,40,174.2v12.33c3.06,0.63,6.14,1.2,9.23,1.6a150.93,150.93,0,0,0,19.42,1.21,29.57,29.57,0,0,0-.9-20.88,2.5,2.5,0,0,1-.49.08" transform="translate(-11.05 -150.57)"/><path class="cls-1" d="M40,169.47a155.73,155.73,0,0,1,25.47-5.3,29.49,29.49,0,0,0-24.85-13.59H40v18.88Z" transform="translate(-11.05 -150.57)"/><path class="cls-1" d="M30.48,179.53a5.45,5.45,0,0,0-.74,1.16,2.9,2.9,0,0,0-.31,1.46,2.63,2.63,0,0,0,1.18,1.4,16.74,16.74,0,0,0,4.81,2V176a14,14,0,0,0-4.94,3.52" transform="translate(-11.05 -150.57)"/><path class="cls-1" d="M59.38,193.63A143.19,143.19,0,0,1,40,191.2v18.4h0.62a29.52,29.52,0,0,0,26.11-15.75c-2.44,0-4.88-.09-7.31-0.24" transform="translate(-11.05 -150.57)"/><path class="cls-2" d="M35.42,190.19l-0.15,0a23.27,23.27,0,0,1-7-2.85h0l-0.44-.3,0,0-0.42-.32,0,0-0.4-.35h0a7.11,7.11,0,0,1-1.34-1.65l0-.08c-0.07-.12-0.13-0.24-0.18-0.36L25.25,184c0-.11-0.09-0.21-0.13-0.32l-0.06-.18L25,183.22l0-.2c0-.1,0-0.2-0.05-0.31s0-.14,0-0.21,0-.21,0-0.31,0-.15,0-0.23,0-.22,0-0.32,0-.15,0-0.23,0-.23.05-0.35,0-.15,0-0.23,0.06-.26.1-0.4l0.05-.2c0.06-.2.13-0.41,0.21-0.62,1.69-4.33,5.83-6.85,10.11-8.57V151a29.52,29.52,0,0,0,0,58.13v-19Z" transform="translate(-11.05 -150.57)"/><path class="cls-1" d="M91.43,179.85l7.13-9.33h3.89l-7.81,10.3,8.68,11.72H99.17l-6.8-9.2L90,186.23v6.32H86.57v-22H90v9.07a25.46,25.46,0,0,1-.26,3.24,21.37,21.37,0,0,1,1.68-3" transform="translate(-11.05 -150.57)"/><rect class="cls-1" x="97.37" y="19.95" width="3.4" height="22.03"/><path class="cls-1" d="M123.68,179.69c-0.87-.94-2.07-2.46-2.07-2.46a31.54,31.54,0,0,1,.23,3.18v12.14h-3.17V170.29h0.45l12.15,13.05c0.84,0.91,2,2.46,2,2.46s-0.23-1.95-.23-3.17V170.52h3.17v22.25h-0.42Z" transform="translate(-11.05 -150.57)"/><path class="cls-1" d="M142,181.53a10.9,10.9,0,0,1,11.31-11.27c3.37,0,6,.94,7.81,2.95l-2.3,2.3a7,7,0,0,0-5.51-2.17c-4.6,0-7.81,3.5-7.81,8.19a7.87,7.87,0,0,0,8.23,8.23,9.87,9.87,0,0,0,5.44-1.42v-3.89h-5.93v-3h9.07V190a13.14,13.14,0,0,1-8.58,2.82c-6.87,0-11.73-4.73-11.73-11.31" transform="translate(-11.05 -150.57)"/><path class="cls-1" d="M174.23,189.53c5.73,0,8.42-3.3,8.42-8s-2.69-8-8.42-8h-2.4v16h2.4Zm-5.83-19h6.06c7.06,0,11.76,4.4,11.76,11s-4.67,11-11.76,11H168.4v-22Z" transform="translate(-11.05 -150.57)"/><path class="cls-1" d="M210.11,181.53c0-4.7-3.24-8.23-7.84-8.23s-7.87,3.53-7.87,8.23,3.27,8.23,7.87,8.23,7.84-3.53,7.84-8.23m-19.21,0a11.35,11.35,0,1,1,11.37,11.31,11.11,11.11,0,0,1-11.37-11.31" transform="translate(-11.05 -150.57)"/><path class="cls-1" d="M219.34,170.29h0.36l10.53,12.31,10.43-12.31H241v22.26h-3.27V181.11c0-1.23.13-3.17,0.13-3.17a26.14,26.14,0,0,1-2,2.66l-5.54,6.67H230l-5.54-6.67c-0.84-1-1.95-2.66-1.95-2.66s0.13,1.94.13,3.17v11.43h-3.27V170.29Z" transform="translate(-11.05 -150.57)"/><path class="cls-2" d="M246.73,181.53A11.07,11.07,0,0,1,258,170.26c4,0,6.87,1.46,8.81,4.37l-2.62,1.88a7,7,0,0,0-6.19-3.17c-4.57,0-7.81,3.5-7.81,8.19s3.24,8.23,7.81,8.23a7.4,7.4,0,0,0,6.51-3.46l2.63,1.84a10.43,10.43,0,0,1-9.13,4.7,11.1,11.1,0,0,1-11.31-11.31" transform="translate(-11.05 -150.57)"/><path class="cls-2" d="M283.36,186.55l-2.75-6.87a33.81,33.81,0,0,1-1.1-3.27,29.58,29.58,0,0,1-1.07,3.27l-2.75,6.87h7.68Zm-4-16.26h0.39l9.65,22.26h-3.56l-1.27-3.11H274.52l-1.26,3.11h-3.3Z" transform="translate(-11.05 -150.57)"/><path class="cls-2" d="M299.81,183.93c4.37,0,6.12-1.91,6.12-5.18s-1.82-5.22-6.12-5.22h-1.94v10.4h1.94Zm9.88,8.62h-4l-4-5.8a18,18,0,0,1-1.84.13h-2.07v5.67h-3.44v-22h5.51c6.09,0,9.49,3.17,9.49,8.23a7,7,0,0,1-4.4,7Z" transform="translate(-11.05 -150.57)"/><polygon class="cls-2" points="304.39 19.95 304.39 41.97 318.84 41.97 318.84 38.96 307.82 38.96 307.82 34.46 317.19 34.46 317.19 31.51 307.82 31.51 307.82 22.96 318.38 22.96 318.38 19.95 304.39 19.95"/><path class="cls-2" d="M334.06,188.27l2.82-1.55a5.44,5.44,0,0,0,5.05,3.08c2.23,0,3.82-1.2,3.82-3s-1.29-2.75-3.69-3.82l-1.46-.65c-3.21-1.43-5.15-3-5.15-6.45s2.52-5.61,6.19-5.61a6.48,6.48,0,0,1,6.22,3.47l-2.69,1.65a3.66,3.66,0,0,0-3.53-2.14,2.57,2.57,0,0,0-2.85,2.56c0,1.65.94,2.4,3.17,3.37l1.43,0.65c3.76,1.65,5.76,3.4,5.76,6.93,0,3.86-3,6.09-7.16,6.09s-6.71-2.07-7.94-4.57" transform="translate(-11.05 -150.57)"/></svg>