<?xml version="1.0" encoding="utf-8"?>
<!-- Generator: Adobe Illustrator 20.1.0, SVG Export Plug-In . SVG Version: 6.00 Build 0)  -->
<svg version="1.1" id="Layer_1" xmlns="http://www.w3.org/2000/svg" xmlns:xlink="http://www.w3.org/1999/xlink" x="0px" y="0px"
	 viewBox="0 0 360 156.7" style="enable-background:new 0 0 360 156.7;" xml:space="preserve">
<style type="text/css">
	.st0{fill:#ED1B2F;}
	.st1{fill:#262761;}
</style>
<g>
	<path class="st0" d="M141.2,59.2c-2.3,0.2-12.9,1.9-15.2,2.3c-10,1.5-20.4,3.7-30,7.1V89c5.1,1,10.2,2,15.3,2.7
		c10.7,1.4,21.5,2,32.2,2c1.6-4.8,2.5-10,2.5-15.3c0-6.9-1.4-13.4-4-19.3C141.7,59.1,141.5,59.2,141.2,59.2"/>
	<path class="st0" d="M95.9,60.7c11.1-3.4,29.6-7.5,42.3-8.8c-8.7-13.6-23.9-22.6-41.2-22.6c-0.3,0-0.7,0-1,0V60.7z"/>
	<path class="st0" d="M80.2,77.4c-0.5,0.6-0.9,1.2-1.2,1.9c-0.4,0.8-0.6,1.6-0.5,2.4c0.1,0.6,0.9,1.6,2,2.3c2.4,1.6,5.2,2.5,8,3.3
		V71.6C85.3,73,82.3,74.8,80.2,77.4"/>
	<path class="st0" d="M128.1,100.8c-10.8-0.6-21.6-1.9-32.2-4v30.5c0.3,0,0.7,0,1,0c18.8,0,35.1-10.6,43.3-26.1
		C136.2,101.2,132.2,101.1,128.1,100.8"/>
	<path class="st1" d="M88.4,95.1c-0.1,0-0.2,0-0.3-0.1c-3.6-0.9-8.1-2.4-11.7-4.7c0,0,0,0,0,0c-0.2-0.2-0.5-0.3-0.7-0.5
		c0,0,0,0-0.1,0c-0.2-0.2-0.5-0.3-0.7-0.5c0,0,0,0-0.1,0c-0.2-0.2-0.5-0.4-0.7-0.6c0,0,0,0,0,0c-0.9-0.8-1.7-1.7-2.2-2.7
		c0,0,0-0.1-0.1-0.1c-0.1-0.2-0.2-0.4-0.3-0.6c0-0.1-0.1-0.2-0.1-0.2c-0.1-0.2-0.1-0.4-0.2-0.5c0-0.1-0.1-0.2-0.1-0.3
		c-0.1-0.2-0.1-0.3-0.1-0.5c0-0.1,0-0.2-0.1-0.3c0-0.2-0.1-0.3-0.1-0.5c0-0.1,0-0.2,0-0.4c0-0.2,0-0.3,0-0.5c0-0.1,0-0.2,0-0.4
		c0-0.2,0-0.4,0-0.5c0-0.1,0-0.3,0-0.4c0-0.2,0.1-0.4,0.1-0.6c0-0.1,0-0.3,0.1-0.4c0-0.2,0.1-0.4,0.2-0.7c0-0.1,0.1-0.2,0.1-0.3
		c0.1-0.3,0.2-0.7,0.4-1c2.8-7.2,9.7-11.4,16.8-14.2V30.1c-23,4-40.4,24.1-40.4,48.2c0,24.1,17.5,44.2,40.4,48.2V95.1z"/>
	<path class="st1" d="M168.5,65.6l6.8-8.9h3.7l-7.4,9.8l8.2,11.1h-3.9l-6.5-8.7l-2.2,2.7v6h-3.3V56.8h3.3v8.6c0,1-0.1,2.2-0.2,3.1
		C167.4,67.5,168,66.3,168.5,65.6"/>
</g>
<rect x="184.7" y="56.8" class="st1" width="3.2" height="20.9"/>
<g>
	<path class="st1" d="M199.1,65.5c-0.8-0.9-2-2.3-2-2.3s0.2,1.7,0.2,3v11.5h-3V56.5h0.4l11.5,12.4c0.8,0.9,1.9,2.3,1.9,2.3
		s-0.2-1.8-0.2-3V56.7h3v21.1h-0.4L199.1,65.5z"/>
	<path class="st1" d="M216.5,67.2c0-6.2,4.5-10.7,10.7-10.7c3.2,0,5.7,0.9,7.4,2.8l-2.2,2.2c-1.2-1.3-2.7-2.1-5.2-2.1
		c-4.4,0-7.4,3.3-7.4,7.8c0,4.5,3.1,7.8,7.8,7.8c2.2,0,4-0.6,5.2-1.4V70h-5.6v-2.9h8.6v8.2c-1.4,1.2-4.2,2.7-8.2,2.7
		C221.1,77.9,216.5,73.4,216.5,67.2"/>
	<path class="st1" d="M247.1,74.8c5.4,0,8-3.1,8-7.6c0-4.5-2.6-7.6-8-7.6h-2.3v15.2H247.1z M241.6,56.8h5.7
		c6.7,0,11.2,4.2,11.2,10.5c0,6.3-4.4,10.5-11.2,10.5h-5.7V56.8z"/>
	<path class="st1" d="M281.2,67.2c0-4.5-3.1-7.8-7.4-7.8c-4.4,0-7.5,3.4-7.5,7.8c0,4.5,3.1,7.8,7.5,7.8
		C278.1,75,281.2,71.7,281.2,67.2 M263,67.2c0-6.2,4.8-10.7,10.8-10.7c6,0,10.8,4.5,10.8,10.7c0,6.2-4.8,10.7-10.8,10.7
		C267.7,77.9,263,73.4,263,67.2"/>
	<path class="st1" d="M289.9,56.5h0.3l10,11.7l9.9-11.7h0.3v21.1h-3.1V66.8c0-1.2,0.1-3,0.1-3s-1,1.6-1.9,2.5l-5.3,6.3H300l-5.3-6.3
		c-0.8-1-1.8-2.5-1.8-2.5s0.1,1.8,0.1,3v10.9h-3.1V56.5z"/>
	<path class="st0" d="M163.2,101.1c0-7.7,5.9-13.3,13.4-13.3c4.7,0,8.1,1.7,10.4,5.3l-4.1,2.9c-1.2-2-3.3-3.4-6.3-3.4
		c-4.7,0-7.9,3.6-7.9,8.5c0,4.9,3.2,8.6,7.9,8.6c3.4,0,5.2-1.6,6.7-3.8l4.2,2.9c-2.3,3.5-5.8,5.7-10.8,5.7
		C169.1,114.4,163.2,108.7,163.2,101.1"/>
	<path class="st0" d="M211,106.6l-1.9-4.5c-0.8-1.8-1.6-4.7-1.6-4.7s-0.8,2.8-1.5,4.7l-1.9,4.5H211z M207.4,87.8h0.5l11.9,26.2h-5.6
		l-1.2-2.9h-10.5l-1.2,2.9H196L207.4,87.8z"/>
	<path class="st0" d="M237.9,102.9c4.4,0,6.3-1.4,6.3-5c0-3.7-2-5.1-6.3-5.1h-1.7v10.2H237.9z M250.1,114h-6.2l-4.3-6.6
		c-0.5,0.1-1,0.1-1.5,0.1h-1.8v6.5h-5.3v-26h7.2c7.3,0,11.6,3.5,11.6,9.8c0,4-1.8,6.6-5,8.1L250.1,114z"/>
</g>
<polygon class="st0" points="262,88.1 279.2,88.1 279.2,92.8 267.3,92.8 267.3,101 277.8,101 277.8,105.6 267.3,105.6 267.3,109.3 
	279.7,109.3 279.7,114 262,114 "/>
<g>
	<path class="st0" d="M290.3,108.9l4.4-2.5c1.1,1.9,2.6,3.2,5.3,3.2c2.2,0,3.6-1.1,3.6-2.6c0-1.8-1.5-2.5-3.9-3.6l-1.3-0.6
		c-3.9-1.6-6.4-3.7-6.4-8.1c0-4,3.1-7.1,7.8-7.1c3.4,0,5.8,1.2,7.6,4.3l-4.2,2.7c-0.9-1.6-1.9-2.3-3.4-2.3c-1.6,0-2.6,1-2.6,2.3
		c0,1.6,1,2.3,3.3,3.2l1.3,0.6c4.5,1.9,7.1,3.9,7.1,8.4c0,4.8-3.8,7.4-8.9,7.4C295,114.4,291.8,112,290.3,108.9"/>
</g>
</svg>
