<?xml version="1.0" encoding="utf-8"?>
<!-- Generator: Adobe Illustrator 20.1.0, SVG Export Plug-In . SVG Version: 6.00 Build 0)  -->
<svg version="1.1" id="Layer_1" xmlns="http://www.w3.org/2000/svg" xmlns:xlink="http://www.w3.org/1999/xlink" x="0px" y="0px"
	 viewBox="0 0 279.3 119" style="enable-background:new 0 0 279.3 119;" xml:space="preserve">
<style type="text/css">
	.st0{fill:#ED1B2F;}
	.st1{fill:#262761;}
</style>
<g>
	<path class="st0" d="M101.8,40.9c-2.3,0.2-12.9,1.9-15.2,2.3c-10,1.5-20.4,3.7-30,7.1v20.5c5.1,1,10.2,2,15.3,2.7
		c10.7,1.4,21.5,2,32.2,2c1.6-4.8,2.5-10,2.5-15.3c0-6.9-1.4-13.4-4-19.3C102.4,40.8,102.1,40.8,101.8,40.9"/>
	<path class="st0" d="M56.6,42.4c11.1-3.4,29.6-7.5,42.3-8.8C90.1,20,74.9,11,57.6,11c-0.3,0-0.7,0-1,0V42.4z"/>
	<path class="st0" d="M40.9,59.1c-0.5,0.6-0.9,1.2-1.2,1.9c-0.4,0.8-0.6,1.6-0.5,2.4c0.1,0.6,0.9,1.6,2,2.3c2.4,1.6,5.2,2.5,8,3.3
		V53.2C46,54.7,43,56.5,40.9,59.1"/>
	<path class="st0" d="M88.8,82.5c-10.8-0.6-21.6-1.9-32.2-4V109c0.3,0,0.7,0,1,0c18.8,0,35.1-10.6,43.3-26.1
		C96.9,82.8,92.8,82.7,88.8,82.5"/>
	<path class="st1" d="M49.1,76.8c-0.1,0-0.2,0-0.3-0.1c-3.6-0.9-8.1-2.4-11.7-4.7c0,0,0,0,0,0c-0.2-0.2-0.5-0.3-0.7-0.5
		c0,0,0,0-0.1,0c-0.2-0.2-0.5-0.3-0.7-0.5c0,0,0,0-0.1,0c-0.2-0.2-0.5-0.4-0.7-0.6c0,0,0,0,0,0c-0.9-0.8-1.7-1.7-2.2-2.7
		c0,0,0-0.1-0.1-0.1c-0.1-0.2-0.2-0.4-0.3-0.6c0-0.1-0.1-0.2-0.1-0.2C32.1,66.4,32,66.2,32,66c0-0.1-0.1-0.2-0.1-0.3
		c-0.1-0.2-0.1-0.3-0.1-0.5c0-0.1,0-0.2-0.1-0.3c0-0.2-0.1-0.3-0.1-0.5c0-0.1,0-0.2,0-0.4c0-0.2,0-0.3,0-0.5c0-0.1,0-0.2,0-0.4
		c0-0.2,0-0.4,0-0.5c0-0.1,0-0.3,0-0.4c0-0.2,0.1-0.4,0.1-0.6c0-0.1,0-0.3,0.1-0.4c0-0.2,0.1-0.4,0.2-0.7c0-0.1,0.1-0.2,0.1-0.3
		c0.1-0.3,0.2-0.7,0.4-1C35.1,52,42,47.9,49.1,45V11.8c-23,4-40.4,24.1-40.4,48.2c0,24.1,17.5,44.2,40.4,48.2V76.8z"/>
	<path class="st1" d="M129.2,47.3l6.8-8.9h3.7l-7.4,9.8l8.2,11.1h-3.9l-6.5-8.7l-2.2,2.7v6h-3.3V38.4h3.3V47c0,1-0.1,2.2-0.2,3.1
		C128.1,49.2,128.7,48,129.2,47.3"/>
</g>
<rect x="145.3" y="38.4" class="st1" width="3.2" height="20.9"/>
<g>
	<path class="st1" d="M159.8,47.1c-0.8-0.9-2-2.3-2-2.3s0.2,1.7,0.2,3v11.5h-3V38.2h0.4L167,50.6c0.8,0.9,1.9,2.3,1.9,2.3
		s-0.2-1.8-0.2-3V38.4h3v21.1h-0.4L159.8,47.1z"/>
	<path class="st1" d="M177.2,48.9c0-6.2,4.5-10.7,10.7-10.7c3.2,0,5.7,0.9,7.4,2.8l-2.2,2.2c-1.2-1.3-2.7-2.1-5.2-2.1
		c-4.4,0-7.4,3.3-7.4,7.8c0,4.5,3.1,7.8,7.8,7.8c2.2,0,4-0.6,5.2-1.4v-3.7h-5.6v-2.9h8.6v8.2c-1.4,1.2-4.2,2.7-8.2,2.7
		C181.8,59.6,177.2,55.1,177.2,48.9"/>
	<path class="st1" d="M207.8,56.5c5.4,0,8-3.1,8-7.6c0-4.5-2.6-7.6-8-7.6h-2.3v15.2H207.8z M202.3,38.4h5.7
		c6.7,0,11.2,4.2,11.2,10.5c0,6.3-4.4,10.5-11.2,10.5h-5.7V38.4z"/>
	<path class="st1" d="M241.9,48.9c0-4.5-3.1-7.8-7.4-7.8c-4.4,0-7.5,3.4-7.5,7.8c0,4.5,3.1,7.8,7.5,7.8
		C238.8,56.7,241.9,53.3,241.9,48.9 M223.6,48.9c0-6.2,4.8-10.7,10.8-10.7c6,0,10.8,4.5,10.8,10.7c0,6.2-4.8,10.7-10.8,10.7
		C228.4,59.6,223.6,55.1,223.6,48.9"/>
	<path class="st1" d="M250.6,38.2h0.3l10,11.7l9.9-11.7h0.3v21.1h-3.1V48.5c0-1.2,0.1-3,0.1-3s-1,1.6-1.9,2.5l-5.3,6.3h-0.4
		l-5.3-6.3c-0.8-1-1.8-2.5-1.8-2.5s0.1,1.8,0.1,3v10.9h-3.1V38.2z"/>
	<path class="st0" d="M123.9,82.7c0-7.7,5.9-13.3,13.4-13.3c4.7,0,8.1,1.7,10.4,5.3l-4.1,2.9c-1.2-2-3.3-3.4-6.3-3.4
		c-4.7,0-7.9,3.6-7.9,8.5c0,4.9,3.2,8.6,7.9,8.6c3.4,0,5.2-1.6,6.7-3.8l4.2,2.9c-2.3,3.5-5.8,5.7-10.8,5.7
		C129.8,96.1,123.9,90.4,123.9,82.7"/>
	<path class="st0" d="M171.7,88.3l-1.9-4.5c-0.8-1.8-1.6-4.7-1.6-4.7s-0.8,2.8-1.5,4.7l-1.9,4.5H171.7z M168.1,69.5h0.5l11.9,26.2
		h-5.6l-1.2-2.9H163l-1.2,2.9h-5.2L168.1,69.5z"/>
	<path class="st0" d="M198.6,84.6c4.4,0,6.3-1.4,6.3-5c0-3.7-2-5.1-6.3-5.1h-1.7v10.2H198.6z M210.7,95.7h-6.2l-4.3-6.6
		c-0.5,0.1-1,0.1-1.5,0.1h-1.8v6.5h-5.3v-26h7.2c7.3,0,11.6,3.5,11.6,9.8c0,4-1.8,6.6-5,8.1L210.7,95.7z"/>
</g>
<polygon class="st0" points="222.7,69.7 239.8,69.7 239.8,74.4 228,74.4 228,82.7 238.4,82.7 238.4,87.3 228,87.3 228,91 240.4,91 
	240.4,95.7 222.7,95.7 "/>
<g>
	<path class="st0" d="M250.9,90.6l4.4-2.5c1.1,1.9,2.6,3.2,5.3,3.2c2.2,0,3.6-1.1,3.6-2.6c0-1.8-1.5-2.5-3.9-3.6l-1.3-0.6
		c-3.9-1.6-6.4-3.7-6.4-8.1c0-4,3.1-7.1,7.8-7.1c3.4,0,5.8,1.2,7.6,4.3l-4.2,2.7c-0.9-1.6-1.9-2.3-3.4-2.3c-1.6,0-2.6,1-2.6,2.3
		c0,1.6,1,2.3,3.3,3.2l1.3,0.6c4.5,1.9,7.1,3.9,7.1,8.4c0,4.8-3.8,7.4-8.9,7.4C255.7,96.1,252.5,93.7,250.9,90.6"/>
</g>
</svg>
